Coordinates
version=1
nRows=11
nColumns=36
inDegrees=yes

Units are S.I. units (second, meters, Newtons, ...)
If the header above contains a line with 'inDegrees', this indicates whether rotational values are in degrees (yes) or radians (no).

endheader
time	pelvis_tilt	pelvis_list	pelvis_rotation	pelvis_tx	pelvis_ty	pelvis_tz	hip_flexion_r	hip_adduction_r	hip_rotation_r	knee_angle_r	knee_angle_r_beta	ankle_angle_r	subtalar_angle_r	mtp_angle_r	hip_flexion_l	hip_adduction_l	hip_rotation_l	knee_angle_l	knee_angle_l_beta	ankle_angle_l	subtalar_angle_l	mtp_angle_l	lumbar_extension	lumbar_bending	lumbar_rotation	arm_flex_r	arm_add_r	arm_rot_r	elbow_flex_r	pro_sup_r	arm_flex_l	arm_add_l	arm_rot_l	elbow_flex_l	pro_sup_l
      0.00000000	     11.97141197	     -1.56390570	     -0.94429682	     -0.67640352	      0.69097653	     -0.60918451	     76.61499818	    -13.20970930	      5.78667476	     92.36741893	      1.61211558	      6.44312390	     -1.80582939	     -4.53268513	     77.94686457	    -21.57671492	      7.79670306	     94.14594124	      1.64315665	      8.41663163	      9.95010007	     -4.53268513	    -30.68812614	     -0.45633547	      3.84403737	      4.04761231	    -13.36124661	      1.87264781	    117.15207641	    113.47640299	      8.48824502	    -13.49074700	     13.61531531	    116.36006033	    105.30579778
      0.01000000	     11.70361988	     -1.53046190	     -0.89966987	     -0.67590805	      0.69099586	     -0.60936772	     76.85340139	    -13.25139227	      5.83241296	     92.35278731	      1.61186021	      6.43823443	     -1.81887327	     -4.78086002	     78.18142673	    -21.46632201	      7.79390702	     94.14282943	      1.64310234	      8.43096857	      9.94093498	     -4.78086002	    -30.98244032	     -0.49050103	      3.76956725	      4.48953117	    -13.64487326	      1.81473205	    117.58985102	    113.42216600	      8.98047173	    -13.54726019	     13.57555203	    116.70041171	    104.86148130
      0.02000000	     11.40475041	     -1.54527038	     -0.85080215	     -0.67548587	      0.69090370	     -0.60942108	     77.12335187	    -13.26067063	      5.82884261	     92.34749249	      1.61176780	      6.45547211	     -1.81647164	     -5.22388761	     78.47409525	    -21.37363123	      7.84160212	     94.10057430	      1.64236485	      8.33026769	      9.76617611	     -5.22388761	    -31.29233433	     -0.49447133	      3.86989267	      4.74935841	    -13.81263225	      1.36771764	    118.23847842	    113.48905443	      9.64838462	    -13.66254161	     13.64315723	    116.84205864	    105.67406832
      0.03000000	     11.04749133	     -1.58430829	     -0.85357335	     -0.67502339	      0.69061073	     -0.60941798	     77.47236824	    -13.21882350	      5.79633282	     92.35462987	      1.61189237	      6.43525789	     -1.87609137	     -5.40454796	     78.84291197	    -21.34711012	      7.92163230	     94.08022476	      1.64200968	      8.40772319	      9.86125737	     -5.40454796	    -31.57992040	     -0.49986294	      3.91113981	      5.11947518	    -14.08720254	      1.12305300	    118.81935498	    113.40858752	     10.18362865	    -13.73158413	     13.61624180	    117.36834585	    105.18894209
      0.04000000	     10.63090099	     -1.60359257	     -0.90744396	     -0.67455205	      0.69028498	     -0.60935006	     77.87480607	    -13.10459488	      5.83210401	     92.30576590	      1.61103953	      6.37839117	     -1.94265037	     -5.56253489	     79.26985294	    -21.34038452	      7.97377283	     94.08441162	      1.64208276	      8.39310379	      9.63881865	     -5.56253489	    -31.83139579	     -0.54917639	      4.04042131	      5.48184102	    -14.37014666	      0.87021342	    119.39646725	    113.38759206	     10.81482682	    -13.79403119	     13.70129514	    117.80106054	    104.88668106
      0.05000000	     10.24334493	     -1.60477336	     -0.99396614	     -0.67396409	      0.69000430	     -0.60915214	     78.27034046	    -12.98345233	      5.86661625	     92.29838485	      1.61091071	      6.31489086	     -2.01958027	     -5.64256250	     79.66107478	    -21.40453447	      7.99164350	     94.11687742	      1.64264939	      8.35551724	      9.62969348	     -5.64256250	    -32.14897699	     -0.64754643	      4.25347261	      5.73789485	    -14.59063496	      0.45636005	    120.06799155	    113.35741696	     11.54594371	    -13.91845187	     13.69536398	    118.07290559	    105.27600613
      0.06000000	      9.81965163	     -1.61315324	     -1.02627303	     -0.67339075	      0.68985607	     -0.60911256	     78.67152700	    -12.90846348	      5.89523836	     92.26661651	      1.61035625	      6.30120393	     -2.02041681	     -5.65363846	     80.05993194	    -21.37459152	      8.03357973	     94.08112712	      1.64202543	      8.35260205	      9.58348068	     -5.65363846	    -32.47658791	     -0.67867626	      4.25548675	      6.21477905	    -14.86191593	      0.28727300	    120.66223169	    113.35757730	     12.06045664	    -14.02445836	     13.61036647	    118.51560712	    105.39746144
      0.07000000	      9.35862778	     -1.65402904	     -1.01821591	     -0.67272902	      0.68965768	     -0.60911426	     79.09416907	    -12.86459570	      5.88209151	     92.24665250	      1.61000781	      6.27780015	     -2.04467719	     -5.66680461	     80.53158159	    -21.30096907	      8.14078254	     94.06957499	      1.64182381	      8.33363579	      9.52373024	     -5.66680461	    -32.79532479	     -0.66282969	      4.26992908	      6.65097417	    -15.18603159	      0.08000931	    121.26427421	    113.35260678	     12.63230484	    -14.13647876	     13.53115195	    118.97275061	    105.52606942
      0.08000000	      8.96526673	     -1.66130293	     -1.03318404	     -0.67211146	      0.68965411	     -0.60903662	     79.44170282	    -12.79225349	      5.90079878	     92.22227011	      1.60958226	      6.30871922	     -2.06379414	     -5.66949546	     80.88321027	    -21.24376569	      8.18578674	     94.04357676	      1.64137005	      8.36524678	      9.50201013	     -5.66949546	    -33.17817670	     -0.71265280	      4.25064623	      7.23713131	    -15.42350543	     -0.12368319	    121.53240654	    113.34994623	     13.28617814	    -14.20944227	     13.36652866	    119.21082639	    105.55487535
      0.09000000	      8.37630984	     -1.64996516	     -1.07124178	     -0.67130518	      0.68927140	     -0.60889158	     79.99642833	    -12.67602403	      5.98146816	     92.17876938	      1.60882303	      6.33402724	     -2.14421862	     -5.67937688	     81.43675749	    -21.17543692	      8.26469948	     94.00800619	      1.64074923	      8.37414160	      9.40657472	     -5.67937688	    -33.51015757	     -0.77362505	      4.31842982	      7.57999160	    -15.66786807	     -0.37163558	    122.47395877	    113.36651422	     13.82895531	    -14.35039046	     13.35143599	    119.98485717	    105.69380223
      0.10000000	      7.80222123	     -1.63058871	     -1.15232504	     -0.67042773	      0.68893829	     -0.60859520	     80.54384027	    -12.49766138	      6.07274338	     92.15828323	      1.60846548	      6.33895894	     -2.25676811	     -5.69181457	     81.97852750	    -21.18698080	      8.28841544	     93.99277722	      1.64048344	      8.36057703	      9.31143207	     -5.69181457	    -33.82367258	     -0.88566360	      4.44201082	      7.95422750	    -15.87675354	     -0.72099507	    123.21515871	    113.35157412	     14.43818313	    -14.48925148	     13.31432403	    120.52391554	    105.81477878
